{
	"asset":{
		"generator":"Khronos glTF Blender I/O v4.1.62",
		"version":"2.0"
	},
	"scene":0,
	"scenes":[
		{
			"name":"Scene",
			"nodes":[
				0
			]
		}
	],
	"nodes":[
		{
			"mesh":0,
			"name":"land-col"
		}
	],
	"materials":[
		{
			"doubleSided":true,
			"name":"Rock",
			"pbrMetallicRoughness":{
				"baseColorTexture":{
					"index":0
				},
				"metallicFactor":0
			}
		},
		{
			"alphaMode":"BLEND",
			"doubleSided":true,
			"name":"Ocean Barrier",
			"pbrMetallicRoughness":{
				"baseColorFactor":[
					0.010698599740862846,
					0.008891009725630283,
					0.8001892566680908,
					0.30000001192092896
				],
				"metallicFactor":0
			}
		},
		{
			"doubleSided":true,
			"name":"Sand",
			"pbrMetallicRoughness":{
				"baseColorTexture":{
					"index":1
				},
				"metallicFactor":0,
				"roughnessFactor":0.5
			}
		}
	],
	"meshes":[
		{
			"name":"Grid",
			"primitives":[
				{
					"attributes":{
						"POSITION":0,
						"NORMAL":1,
						"TEXCOORD_0":2,
						"TANGENT":3
					},
					"indices":4,
					"material":0
				},
				{
					"attributes":{
						"POSITION":5,
						"NORMAL":6,
						"TEXCOORD_0":7,
						"TANGENT":8
					},
					"indices":9,
					"material":1
				},
				{
					"attributes":{
						"POSITION":10,
						"NORMAL":11,
						"TEXCOORD_0":12,
						"TANGENT":13
					},
					"indices":14,
					"material":2
				}
			]
		}
	],
	"textures":[
		{
			"sampler":0,
			"source":0
		},
		{
			"sampler":0,
			"source":1
		}
	],
	"images":[
		{
			"mimeType":"image/jpeg",
			"name":"coral_fort_wall_02_diff_4k.jpg",
			"uri":"../../assets/textures/coral_fort_wall_02_diff_4k.jpg"
		},
		{
			"mimeType":"image/jpeg",
			"name":"coast_sand_01_diff_4k.jpg",
			"uri":"../../assets/textures/coast_sand_01_diff_4k.jpg"
		}
	],
	"accessors":[
		{
			"bufferView":0,
			"componentType":5126,
			"count":35835,
			"max":[
				110.7048110961914,
				47.2978515625,
				112.63618469238281
			],
			"min":[
				-108.80120849609375,
				-0.6639729738235474,
				-111.146484375
			],
			"type":"VEC3"
		},
		{
			"bufferView":1,
			"componentType":5126,
			"count":35835,
			"type":"VEC3"
		},
		{
			"bufferView":2,
			"componentType":5126,
			"count":35835,
			"type":"VEC2"
		},
		{
			"bufferView":3,
			"componentType":5126,
			"count":35835,
			"type":"VEC4"
		},
		{
			"bufferView":4,
			"componentType":5123,
			"count":53808,
			"type":"SCALAR"
		},
		{
			"bufferView":5,
			"componentType":5126,
			"count":15109,
			"max":[
				113.9559555053711,
				52.60546875,
				114.10167694091797
			],
			"min":[
				-112.43169403076172,
				-0.5748386979103088,
				-114.4283218383789
			],
			"type":"VEC3"
		},
		{
			"bufferView":6,
			"componentType":5126,
			"count":15109,
			"type":"VEC3"
		},
		{
			"bufferView":7,
			"componentType":5126,
			"count":15109,
			"type":"VEC2"
		},
		{
			"bufferView":8,
			"componentType":5126,
			"count":15109,
			"type":"VEC4"
		},
		{
			"bufferView":9,
			"componentType":5123,
			"count":34560,
			"type":"SCALAR"
		},
		{
			"bufferView":10,
			"componentType":5126,
			"count":68120,
			"max":[
				113.4140853881836,
				19.02867317199707,
				113.55980682373047
			],
			"min":[
				-111.90840148925781,
				-5.861111640930176,
				-113.8864517211914
			],
			"type":"VEC3"
		},
		{
			"bufferView":11,
			"componentType":5126,
			"count":68120,
			"type":"VEC3"
		},
		{
			"bufferView":12,
			"componentType":5126,
			"count":68120,
			"type":"VEC2"
		},
		{
			"bufferView":13,
			"componentType":5126,
			"count":68120,
			"type":"VEC4"
		},
		{
			"bufferView":14,
			"componentType":5125,
			"count":102180,
			"type":"SCALAR"
		}
	],
	"bufferViews":[
		{
			"buffer":0,
			"byteLength":430020,
			"byteOffset":0,
			"target":34962
		},
		{
			"buffer":0,
			"byteLength":430020,
			"byteOffset":430020,
			"target":34962
		},
		{
			"buffer":0,
			"byteLength":286680,
			"byteOffset":860040,
			"target":34962
		},
		{
			"buffer":0,
			"byteLength":573360,
			"byteOffset":1146720,
			"target":34962
		},
		{
			"buffer":0,
			"byteLength":107616,
			"byteOffset":1720080,
			"target":34963
		},
		{
			"buffer":0,
			"byteLength":181308,
			"byteOffset":1827696,
			"target":34962
		},
		{
			"buffer":0,
			"byteLength":181308,
			"byteOffset":2009004,
			"target":34962
		},
		{
			"buffer":0,
			"byteLength":120872,
			"byteOffset":2190312,
			"target":34962
		},
		{
			"buffer":0,
			"byteLength":241744,
			"byteOffset":2311184,
			"target":34962
		},
		{
			"buffer":0,
			"byteLength":69120,
			"byteOffset":2552928,
			"target":34963
		},
		{
			"buffer":0,
			"byteLength":817440,
			"byteOffset":2622048,
			"target":34962
		},
		{
			"buffer":0,
			"byteLength":817440,
			"byteOffset":3439488,
			"target":34962
		},
		{
			"buffer":0,
			"byteLength":544960,
			"byteOffset":4256928,
			"target":34962
		},
		{
			"buffer":0,
			"byteLength":1089920,
			"byteOffset":4801888,
			"target":34962
		},
		{
			"buffer":0,
			"byteLength":408720,
			"byteOffset":5891808,
			"target":34963
		}
	],
	"samplers":[
		{
			"magFilter":9728,
			"minFilter":9984
		}
	],
	"buffers":[
		{
			"byteLength":6300528,
			"uri":"land-7c96f6531f798356271d74b6587a8cd3.bin"
		}
	]
}
