{
	"asset":{
		"generator":"Khronos glTF Blender I/O v4.1.62",
		"version":"2.0"
	},
	"scene":0,
	"scenes":[
		{
			"name":"Scene",
			"nodes":[
				4
			]
		}
	],
	"nodes":[
		{
			"name":"Bone.001",
			"rotation":[
				-0.455326110124588,
				-4.562159716670067e-08,
				7.815512071829289e-05,
				0.8903247117996216
			],
			"translation":[
				-3.597122599785507e-14,
				0.49935272336006165,
				-6.073022640329384e-11
			]
		},
		{
			"name":"Bone.002",
			"rotation":[
				0.5062673687934875,
				-3.024278427687932e-08,
				-8.687172521604225e-05,
				0.8623765707015991
			],
			"scale":[
				1,
				1.0000001192092896,
				1.0000001192092896
			],
			"translation":[
				-3.597122599785507e-14,
				0.49935272336006165,
				-6.073022640329384e-11
			]
		},
		{
			"children":[
				0,
				1
			],
			"name":"Bone",
			"rotation":[
				0.7069854736328125,
				-6.066054993425496e-05,
				-6.066054993425496e-05,
				0.7072281241416931
			],
			"translation":[
				2.795612183282964e-18,
				0.0025903182104229927,
				-0.695421040058136
			]
		},
		{
			"mesh":0,
			"name":"Shrimp",
			"skin":0
		},
		{
			"children":[
				3,
				2
			],
			"name":"Armature"
		}
	],
	"animations":[
		{
			"channels":[
				{
					"sampler":0,
					"target":{
						"node":2,
						"path":"translation"
					}
				},
				{
					"sampler":1,
					"target":{
						"node":2,
						"path":"rotation"
					}
				},
				{
					"sampler":2,
					"target":{
						"node":2,
						"path":"scale"
					}
				},
				{
					"sampler":3,
					"target":{
						"node":0,
						"path":"translation"
					}
				},
				{
					"sampler":4,
					"target":{
						"node":0,
						"path":"rotation"
					}
				},
				{
					"sampler":5,
					"target":{
						"node":0,
						"path":"scale"
					}
				},
				{
					"sampler":6,
					"target":{
						"node":1,
						"path":"translation"
					}
				},
				{
					"sampler":7,
					"target":{
						"node":1,
						"path":"rotation"
					}
				},
				{
					"sampler":8,
					"target":{
						"node":1,
						"path":"scale"
					}
				}
			],
			"name":"idle_loop",
			"samplers":[
				{
					"input":8,
					"interpolation":"LINEAR",
					"output":9
				},
				{
					"input":10,
					"interpolation":"STEP",
					"output":11
				},
				{
					"input":10,
					"interpolation":"STEP",
					"output":12
				},
				{
					"input":10,
					"interpolation":"LINEAR",
					"output":13
				},
				{
					"input":8,
					"interpolation":"LINEAR",
					"output":14
				},
				{
					"input":10,
					"interpolation":"STEP",
					"output":15
				},
				{
					"input":10,
					"interpolation":"LINEAR",
					"output":16
				},
				{
					"input":8,
					"interpolation":"LINEAR",
					"output":17
				},
				{
					"input":10,
					"interpolation":"STEP",
					"output":18
				}
			]
		}
	],
	"materials":[
		{
			"alphaCutoff":0.5,
			"alphaMode":"MASK",
			"doubleSided":true,
			"name":"shrimp",
			"pbrMetallicRoughness":{
				"baseColorTexture":{
					"index":0
				},
				"metallicFactor":0,
				"roughnessFactor":0.5
			}
		}
	],
	"meshes":[
		{
			"name":"Plane",
			"primitives":[
				{
					"attributes":{
						"POSITION":0,
						"NORMAL":1,
						"TEXCOORD_0":2,
						"TANGENT":3,
						"JOINTS_0":4,
						"WEIGHTS_0":5
					},
					"indices":6,
					"material":0
				}
			]
		}
	],
	"textures":[
		{
			"sampler":0,
			"source":0
		}
	],
	"images":[
		{
			"mimeType":"image/png",
			"name":"shrimp.png",
			"uri":"../../assets/blend/shrimp.png"
		}
	],
	"skins":[
		{
			"inverseBindMatrices":7,
			"joints":[
				2,
				0,
				1
			],
			"name":"Armature"
		}
	],
	"accessors":[
		{
			"bufferView":0,
			"componentType":5126,
			"count":62,
			"max":[
				0.10000000149011612,
				0.6210010051727295,
				0.2720049321651459
			],
			"min":[
				-0.10000000149011612,
				-0.5070828199386597,
				-0.19999997317790985
			],
			"type":"VEC3"
		},
		{
			"bufferView":1,
			"componentType":5126,
			"count":62,
			"type":"VEC3"
		},
		{
			"bufferView":2,
			"componentType":5126,
			"count":62,
			"type":"VEC2"
		},
		{
			"bufferView":3,
			"componentType":5126,
			"count":62,
			"type":"VEC4"
		},
		{
			"bufferView":4,
			"componentType":5121,
			"count":62,
			"type":"VEC4"
		},
		{
			"bufferView":5,
			"componentType":5126,
			"count":62,
			"type":"VEC4"
		},
		{
			"bufferView":6,
			"componentType":5123,
			"count":84,
			"type":"SCALAR"
		},
		{
			"bufferView":7,
			"componentType":5126,
			"count":3,
			"type":"MAT4"
		},
		{
			"bufferView":8,
			"componentType":5126,
			"count":40,
			"max":[
				1.6666666666666667
			],
			"min":[
				0.041666666666666664
			],
			"type":"SCALAR"
		},
		{
			"bufferView":9,
			"componentType":5126,
			"count":40,
			"type":"VEC3"
		},
		{
			"bufferView":10,
			"componentType":5126,
			"count":2,
			"max":[
				1.6666666666666667
			],
			"min":[
				0.041666666666666664
			],
			"type":"SCALAR"
		},
		{
			"bufferView":11,
			"componentType":5126,
			"count":2,
			"type":"VEC4"
		},
		{
			"bufferView":12,
			"componentType":5126,
			"count":2,
			"type":"VEC3"
		},
		{
			"bufferView":13,
			"componentType":5126,
			"count":2,
			"type":"VEC3"
		},
		{
			"bufferView":14,
			"componentType":5126,
			"count":40,
			"type":"VEC4"
		},
		{
			"bufferView":15,
			"componentType":5126,
			"count":2,
			"type":"VEC3"
		},
		{
			"bufferView":16,
			"componentType":5126,
			"count":2,
			"type":"VEC3"
		},
		{
			"bufferView":17,
			"componentType":5126,
			"count":40,
			"type":"VEC4"
		},
		{
			"bufferView":18,
			"componentType":5126,
			"count":2,
			"type":"VEC3"
		}
	],
	"bufferViews":[
		{
			"buffer":0,
			"byteLength":744,
			"byteOffset":0,
			"target":34962
		},
		{
			"buffer":0,
			"byteLength":744,
			"byteOffset":744,
			"target":34962
		},
		{
			"buffer":0,
			"byteLength":496,
			"byteOffset":1488,
			"target":34962
		},
		{
			"buffer":0,
			"byteLength":992,
			"byteOffset":1984,
			"target":34962
		},
		{
			"buffer":0,
			"byteLength":248,
			"byteOffset":2976,
			"target":34962
		},
		{
			"buffer":0,
			"byteLength":992,
			"byteOffset":3224,
			"target":34962
		},
		{
			"buffer":0,
			"byteLength":168,
			"byteOffset":4216,
			"target":34963
		},
		{
			"buffer":0,
			"byteLength":192,
			"byteOffset":4384
		},
		{
			"buffer":0,
			"byteLength":160,
			"byteOffset":4576
		},
		{
			"buffer":0,
			"byteLength":480,
			"byteOffset":4736
		},
		{
			"buffer":0,
			"byteLength":8,
			"byteOffset":5216
		},
		{
			"buffer":0,
			"byteLength":32,
			"byteOffset":5224
		},
		{
			"buffer":0,
			"byteLength":24,
			"byteOffset":5256
		},
		{
			"buffer":0,
			"byteLength":24,
			"byteOffset":5280
		},
		{
			"buffer":0,
			"byteLength":640,
			"byteOffset":5304
		},
		{
			"buffer":0,
			"byteLength":24,
			"byteOffset":5944
		},
		{
			"buffer":0,
			"byteLength":24,
			"byteOffset":5968
		},
		{
			"buffer":0,
			"byteLength":640,
			"byteOffset":5992
		},
		{
			"buffer":0,
			"byteLength":24,
			"byteOffset":6632
		}
	],
	"samplers":[
		{
			"magFilter":9728,
			"minFilter":9984
		}
	],
	"buffers":[
		{
			"byteLength":6656,
			"uri":"shrimp-1569342571e1bf1e676edec63496dce7.bin"
		}
	]
}
